<svg width="22" height="21" viewBox="0 0 22 21" fill="none" xmlns="http://www.w3.org/2000/svg">
<path d="M20.931 9.97415L11.2793 0.279773C11.1048 0.104083 10.8226 0.000532395 10.5225 0C10.5203 0 10.5203 0 10.5203 0C10.2184 0.000532395 9.93685 0.105414 9.76163 0.281903L0.172159 9.97628C-0.0300992 10.1805 -0.0560292 10.449 0.104369 10.6716C0.262175 10.8939 0.582973 11.0339 0.932664 11.0339H5.44568L5.44531 19.7409C5.44531 20.1109 5.86205 20.4104 6.37733 20.4104L14.7273 20.4101C15.2419 20.4104 15.659 20.1109 15.6593 19.7401V11.0341H20.1738C20.5221 11.0341 20.8417 10.8931 21.0025 10.6703C21.1625 10.4477 21.1348 10.1786 20.931 9.97415Z" fill="#9C9C9C" fill-opacity="0.6"/>
</svg>
